<?xml version="1.0" encoding="UTF-8"?>
<svg id="Layer_1" data-name="Layer 1" xmlns="http://www.w3.org/2000/svg" viewBox="0 0 45 45">
  <defs>
    <style>
      .cls-1 {
        fill: #f85b52;
      }
    </style>
  </defs>
  <path class="cls-1" d="M44.98,22.49c-.36-6.68-6.83-11.16-13.2-10.55-1.12-3.87-3.29-7.55-6.77-9.69C19.51-1.13,10.83-.64,5.74,3.34.62,7.33-1.25,14.56.84,20.7c1.08,3.14,3.36,5.57,4.2,8.78.82,3.2.28,7.31-.34,10.53-.24,1.22-.84,2.85-.96,3.98-.06.51.12,1.04.73,1.01.49-.03.6-.32.73-.72,1.14-3.21,2.06-9.39,1.75-12.76-.57-6-5.2-9.27-5.46-15.29C1.07,5.84,10.72-.43,20.32,1.94c5.13,1.28,8.46,5.18,9.89,10.16-5.05.87-8.64,4.73-9.51,9.74-.34,2.01-.21,2.55-1.26,4.41-.84,1.47-2.78,3.36-.42,4.61.21.11,1.08.36,1.12.47.18,2-.58,4.91,1.15,6.36,1.26,1.05,3.17.83,4.69.86.06,1.34-.06,2.66-.28,3.98-.07.44-.45,1.64-.34,1.97.16.5.9.65,1.27.3.34-.32.75-3.17.81-3.77.07-.89.07-1.77.07-2.67,1-.14,2.03-.36,2.88-.95,1.29-.9,1.75-2.46,1.84-3.96.12-2.19-.1-4.47,0-6.66.66-.36,1.48-.47,2.17-.8.88-.44,1.36-1.16,1.24-2.18-.12-1.07-2.36-3.75-2.94-5.09-.76-1.79-.51-3.44-.73-5.3,5.17-.42,10.6,2.93,11.42,8.3.96,6.35-3.86,9.47-4.18,15.08-.12,2.07.4,5.78,1.27,7.68.42.89,1.54.56,1.4-.44-.09-.72-.57-1.86-.75-2.67-.76-3.42-.64-5.9.93-9.03,1.72-3.45,3.14-5.76,2.91-9.86ZM34.1,23.79c.22.57-.24.74-.67.93-.6.27-2.08.59-2.47.96-.07.08-.15.17-.19.27l-.03,7.74c-.06,3.08-3.18,3.27-5.54,3.33-.97.03-2.82.03-3.3-.99-.51-1.13-.09-3.75-.22-5.12-.13-1.47-1.99-.66-2.35-1.83.73-1.19,1.72-2.3,2.26-3.6.6-1.49.48-3.11.93-4.67,1.11-3.83,4.12-6.51,8.03-7.2-.03.26.06.51.07.75.07,1.23-.04,2.31.22,3.54.49,2.18,2.11,4.04,3.27,5.88Z"/>
</svg>